<?xml version="1.0" standalone="no"?>
<!DOCTYPE svg PUBLIC "-//W3C//DTD SVG 20010904//EN"
 "http://www.w3.org/TR/2001/REC-SVG-20010904/DTD/svg10.dtd">
<svg version="1.0" xmlns="http://www.w3.org/2000/svg"
 width="1024.000000pt" height="450.000000pt" viewBox="0 0 1024.000000 450.000000"
 preserveAspectRatio="xMidYMid meet">

<g transform="translate(0.000000,450.000000) scale(0.100000,-0.100000)"
fill="#000000" stroke="none">
<path d="M1685 3455 c-140 -31 -306 -133 -388 -240 -138 -182 -195 -395 -151
-570 l16 -64 -27 -58 c-48 -100 -86 -225 -95 -311 -24 -225 55 -448 212 -598
163 -156 372 -234 627 -234 l112 0 82 -84 c84 -86 143 -123 257 -162 50 -17
83 -19 349 -17 323 3 353 7 466 66 75 40 201 163 243 238 18 32 40 88 49 125
9 38 17 70 19 72 1 2 33 -16 70 -40 144 -92 306 -138 483 -138 l119 0 52 -64
c153 -189 293 -226 745 -199 104 6 201 7 230 2 75 -12 497 0 578 17 64 14 71
13 140 -8 57 -18 95 -22 182 -22 228 2 482 15 537 29 123 31 271 121 328 198
l25 35 160 6 c88 3 169 7 181 8 15 2 34 -14 70 -62 169 -223 430 -326 748
-298 106 10 115 9 191 -15 82 -25 274 -45 380 -39 290 18 504 220 530 501 15
156 -40 297 -157 406 l-71 66 -7 82 c-4 45 -17 159 -28 252 -33 273 -42 382
-41 510 1 127 -9 169 -70 285 -50 94 -171 187 -300 229 -131 43 -464 22 -594
-37 -83 -38 -178 -119 -219 -186 -18 -31 -36 -56 -39 -56 -4 0 -35 23 -70 51
-35 28 -84 61 -109 74 -56 28 -296 93 -389 104 -212 27 -461 -82 -678 -296
l-70 -69 -64 58 c-136 124 -268 194 -410 217 -85 14 -206 14 -284 0 -60 -11
-66 -11 -136 18 -41 17 -99 37 -129 44 -68 16 -260 16 -317 0 -37 -10 -52 -9
-115 11 -65 21 -92 23 -253 22 -150 0 -192 -3 -251 -21 -71 -20 -73 -20 -144
-2 -163 42 -313 34 -484 -23 -148 -49 -246 -104 -347 -194 l-49 -43 -68 23
c-112 38 -197 50 -318 42 -60 -4 -118 -7 -129 -8 -11 0 -49 7 -85 17 -46 11
-94 16 -164 13 l-98 -3 -57 75 c-139 184 -316 269 -576 276 -91 3 -151 -1
-200 -11z m250 -406 c110 -20 183 -72 238 -169 29 -51 62 -137 72 -190 10 -50
13 -52 48 -33 19 9 73 19 132 24 55 4 125 13 155 19 75 16 137 6 172 -27 15
-15 28 -33 28 -40 0 -19 18 -16 100 19 63 26 88 31 155 32 112 0 170 -21 233
-88 60 -64 81 -103 89 -164 5 -42 2 -52 -22 -80 -48 -57 -141 -67 -199 -21
-15 12 -35 38 -46 60 -48 93 -111 88 -207 -14 -87 -93 -97 -132 -89 -340 4
-89 9 -181 12 -204 l5 -43 65 0 c72 0 111 -15 143 -56 31 -40 28 -91 -10 -137
-54 -65 -63 -67 -322 -70 -222 -2 -234 -1 -273 20 -49 26 -69 67 -61 121 9 55
49 85 134 101 l72 14 -5 46 c-12 121 -24 325 -25 410 0 53 -4 119 -7 146 -6
42 -10 50 -27 48 -110 -13 -167 -14 -196 -4 -18 6 -36 8 -40 4 -5 -5 -14 -87
-20 -184 -15 -205 -12 -219 59 -277 59 -48 76 -88 59 -138 -16 -48 -54 -76
-114 -81 -42 -4 -54 -1 -100 30 l-52 35 -95 -16 c-179 -31 -345 6 -452 100
-146 128 -118 402 56 547 100 84 226 131 348 131 l65 0 -7 56 c-8 70 -25 111
-62 148 -33 32 -63 46 -103 46 -31 0 -46 -14 -85 -82 -31 -55 -52 -69 -106
-70 -73 -1 -117 50 -106 121 7 47 55 138 90 173 49 50 134 83 217 87 14 1 52
-4 84 -10z m6490 -93 c46 -20 69 -57 62 -102 -6 -38 13 -300 38 -504 26 -225
35 -313 49 -481 7 -92 17 -172 20 -178 4 -6 28 -11 54 -11 56 -1 108 -25 135
-62 38 -52 -5 -144 -80 -169 -50 -16 -253 -5 -294 17 -17 8 -40 31 -51 50 -11
19 -21 34 -23 34 -2 0 -47 -12 -102 -27 -82 -23 -118 -27 -223 -28 -115 0
-130 2 -182 27 -69 32 -149 104 -183 166 -47 83 -58 144 -51 264 11 171 60
316 151 443 87 122 180 164 380 172 66 3 123 8 128 12 4 4 4 42 1 85 l-7 78
-32 -6 c-45 -9 -124 8 -147 32 -12 11 -22 39 -25 65 -5 40 -2 48 29 82 29 32
42 38 93 45 103 13 223 11 260 -4z m-4234 -71 c93 -33 149 -88 149 -148 0 -52
-35 -103 -84 -122 -52 -20 -84 -13 -140 30 -52 39 -87 46 -150 28 -67 -19
-128 -75 -162 -147 -20 -43 -24 -67 -24 -151 0 -84 4 -108 24 -150 44 -93 149
-165 218 -150 15 4 67 33 115 66 74 50 93 58 118 54 57 -12 83 -27 96 -56 20
-49 -2 -101 -75 -174 -87 -86 -145 -109 -286 -109 -104 -1 -106 0 -191 41
-177 87 -259 235 -259 470 0 83 4 114 24 165 64 171 126 247 251 306 145 70
268 85 376 47z m578 19 c42 -9 79 -49 92 -100 l11 -43 32 23 c48 36 145 82
205 96 111 26 226 -12 312 -103 l51 -55 87 46 c81 43 92 47 176 50 75 3 98 0
135 -17 115 -53 221 -168 299 -326 61 -122 91 -220 140 -447 l38 -173 96 -5
c107 -6 135 -19 169 -80 24 -43 17 -84 -19 -122 -43 -45 -101 -62 -191 -54
-43 3 -113 2 -157 -4 -44 -6 -121 -11 -172 -12 -86 -1 -94 1 -127 26 -33 25
-36 31 -36 80 0 83 54 136 139 136 22 0 42 4 45 8 6 10 -24 163 -58 302 -58
230 -207 450 -306 450 -40 0 -80 -31 -134 -103 l-54 -72 10 -205 c5 -113 12
-238 14 -277 l6 -73 73 0 c86 0 121 -13 141 -51 42 -83 -18 -171 -135 -198
-39 -8 -44 -7 -48 10 -7 24 -23 25 -23 0 0 -17 -14 -19 -174 -25 -185 -7 -208
-4 -265 42 l-25 20 -34 -26 c-32 -24 -44 -27 -191 -35 -86 -4 -198 -7 -250 -5
l-94 4 -44 48 c-32 36 -43 56 -43 80 0 66 64 125 150 141 64 11 62 3 45 211
-8 104 -20 263 -26 354 -6 91 -14 179 -18 195 -7 30 -8 30 -92 36 -46 3 -92 9
-101 13 -27 12 -51 74 -45 114 14 85 109 128 293 131 39 0 85 -2 103 -5z
m2420 -30 c118 -29 149 -46 236 -130 198 -193 224 -535 54 -728 -82 -93 -231
-166 -355 -174 -160 -10 -301 37 -397 131 -69 67 -102 126 -127 222 -30 117
-27 223 9 329 16 47 39 101 51 120 38 63 163 170 250 214 99 51 129 52 279 16z"/>
<path d="M1858 2361 c-117 -46 -178 -111 -178 -192 0 -63 32 -101 108 -129 45
-17 71 -21 125 -17 38 2 72 8 77 13 4 5 10 84 13 177 l5 167 -52 0 c-28 -1
-72 -9 -98 -19z"/>
<path d="M8005 2321 c-57 -26 -78 -53 -127 -161 -39 -89 -42 -102 -46 -201 -4
-93 -2 -111 17 -147 12 -24 39 -54 63 -69 36 -24 54 -28 128 -31 76 -3 95 0
165 27 44 16 93 33 108 37 24 5 27 10 23 33 -3 14 -8 62 -11 106 -3 44 -11
107 -17 140 -5 33 -13 103 -17 155 l-6 95 -65 17 c-88 22 -166 22 -215 -1z"/>
<path d="M5095 2639 c-40 -23 -117 -105 -140 -149 -13 -25 -33 -51 -46 -59
-22 -13 -22 -14 -15 -195 4 -99 15 -224 24 -276 l17 -94 60 -11 c67 -12 91
-23 119 -54 23 -26 31 -26 61 -2 13 10 52 24 86 31 l62 13 -6 181 c-14 417
-32 529 -96 590 -32 31 -94 43 -126 25z"/>
<path d="M7003 2670 c-71 -43 -134 -124 -163 -210 -52 -152 13 -296 164 -366
68 -32 132 -31 196 1 75 38 114 83 133 152 34 119 17 217 -51 308 -51 68 -104
102 -184 119 -61 12 -70 12 -95 -4z"/>
</g>
</svg>
